<?xml version="1.0" encoding="UTF-8"?>
<svg xmlns="http://www.w3.org/2000/svg" xmlns:xlink="http://www.w3.org/1999/xlink"
     width="14000" height="1600" viewBox="0 -800 7000 800">
<defs>
</defs>
<circle cx="917.024343899048" cy="-300.0" r="20.0" fill="none" stroke="black" stroke-width="1" />
<circle cx="100.0" cy="-442.8571428571429" r="20.0" fill="none" stroke="black" stroke-width="1" />
<path d="M112.85739665423185,-458.1766517029169 C117.91461757806997,-442.76518058733853,125.647508492314,-430.54175376942936,134.7541341845142,-419.9551234701779" stroke="black" stroke-width="1" fill="none" />
<path d="M87.14260334576815,-427.5376340113689 C103.19762174692906,-425.2299707869801,116.57697015768407,-419.73426326492205,128.58258379048291,-412.6017592242064" stroke="black" stroke-width="1" fill="none" />
<circle cx="131.66835898749855" cy="-416.27844134719214" r="4.800000000000001" fill="none" stroke="black" stroke-width="1" />
<path d="M134.7541341845142,-419.9551234701779 C260.684029146686,-314.9046432099772,386.8080841735506,-210.08550346983262,513.2458655501791,-105.64016674126263" stroke="black" stroke-width="1" fill="none" />
<path d="M128.58258379048291,-412.6017592242064 C253.88189746966137,-306.79994525294563,378.9870510841471,-200.7667907616288,503.7784783488689,-94.35983325873737" stroke="black" stroke-width="1" fill="none" />
<circle cx="508.512171949524" cy="-100.0" r="7.3633780273817555" fill="none" stroke="black" stroke-width="1" />
<path d="M505.2744053725465,-106.6133352831333 C640.4371395177861,-175.33888253978935,774.9121223975452,-245.46920361255783,908.2301014604894,-317.9627753961312" stroke="black" stroke-width="1" fill="none" />
<path d="M511.74993852650147,-93.3866647168667 C648.9286523476112,-157.99445079354402,786.7951174342014,-221.1974630541088,925.8185863376065,-282.0372246038688" stroke="black" stroke-width="1" fill="none" />
<circle cx="917.024343899048" cy="-300.0" r="20.0" fill="black" stroke="none" />
<circle cx="100.0" cy="-442.8571428571429" r="20.0" fill="black" stroke="none" />
<path d="M112.85739665423185,-458.1766517029169 C117.91461757806997,-442.76518058733853,125.647508492314,-430.54175376942936,134.7541341845142,-419.9551234701779 L128.58258379048291,-412.6017592242064 C116.57697015768407,-419.73426326492205,103.19762174692906,-425.2299707869801,87.14260334576815,-427.5376340113689 L112.85739665423185,-458.1766517029169" fill="black" close="True" stroke="none" />
<circle cx="131.66835898749855" cy="-416.27844134719214" r="4.800000000000001" fill="black" stroke="none" />
<path d="M134.7541341845142,-419.9551234701779 C260.684029146686,-314.9046432099772,386.8080841735506,-210.08550346983262,513.2458655501791,-105.64016674126263 L503.7784783488689,-94.35983325873737 C378.9870510841471,-200.7667907616288,253.88189746966137,-306.79994525294563,128.58258379048291,-412.6017592242064 L134.7541341845142,-419.9551234701779" fill="black" close="True" stroke="none" />
<circle cx="508.512171949524" cy="-100.0" r="7.3633780273817555" fill="black" stroke="none" />
<path d="M505.2744053725465,-106.6133352831333 C640.4371395177861,-175.33888253978935,774.9121223975452,-245.46920361255783,908.2301014604894,-317.9627753961312 L925.8185863376065,-282.0372246038688 C786.7951174342014,-221.1974630541088,648.9286523476112,-157.99445079354402,511.74993852650147,-93.3866647168667 L505.2744053725465,-106.6133352831333" fill="black" close="True" stroke="none" />
<circle cx="1591.6936791455637" cy="-328.57142857142856" r="1.0" fill="none" stroke="black" stroke-width="1" />
<circle cx="720.210591245517" cy="-528.5714285714287" r="1.0" fill="none" stroke="black" stroke-width="1" />
<path d="M720.8289577150167,-529.35731845519 C735.3013983510148,-526.0286858543054,749.7738389870126,-522.7000532534207,764.2462796230105,-519.3714206525361" stroke="black" stroke-width="1" fill="none" />
<path d="M719.5922247760172,-527.7855386876673 C726.2320234650183,-514.5023008924725,732.8718221540194,-501.21906309727746,739.5116208430205,-487.9358253020825" stroke="black" stroke-width="1" fill="none" />
<circle cx="751.8789502330155" cy="-503.65362297730934" r="20.0" fill="none" stroke="black" stroke-width="1" />
<path d="M764.2462796230105,-519.3714206525361 C897.0530205637989,-410.9968341820964,1029.8597615045871,-302.6222477116567,1162.6665024453755,-194.24766124121692" stroke="black" stroke-width="1" fill="none" />
<path d="M739.5116208430205,-487.9358253020825 C876.0870032105821,-384.35085359717317,1012.6623855781434,-280.76588189226385,1149.237767945705,-177.18091018735453" stroke="black" stroke-width="1" fill="none" />
<circle cx="1155.9521351955402" cy="-185.71428571428572" r="10.858233072157235" fill="none" stroke="black" stroke-width="1" />
<path d="M1152.5694364969447,-196.03216218979216 C1298.8403396893616,-240.52866275385924,1445.111242881779,-285.0251633179263,1591.382146074196,-329.5216638819934" stroke="black" stroke-width="1" fill="none" />
<path d="M1159.3348338941357,-175.39640923877928 C1303.5582933350677,-226.13800391280745,1447.7817527759996,-276.87959858683564,1592.0052122169313,-327.6211932608637" stroke="black" stroke-width="1" fill="none" />
<circle cx="1591.6936791455637" cy="-328.57142857142856" r="1.0" fill="black" stroke="none" />
<circle cx="720.210591245517" cy="-528.5714285714287" r="1.0" fill="black" stroke="none" />
<path d="M720.8289577150167,-529.35731845519 C735.3013983510148,-526.0286858543054,749.7738389870126,-522.7000532534207,764.2462796230105,-519.3714206525361 L739.5116208430205,-487.9358253020825 C732.8718221540194,-501.21906309727746,726.2320234650183,-514.5023008924725,719.5922247760172,-527.7855386876673 L720.8289577150167,-529.35731845519" fill="black" close="True" stroke="none" />
<circle cx="751.8789502330155" cy="-503.65362297730934" r="20.0" fill="black" stroke="none" />
<path d="M764.2462796230105,-519.3714206525361 C897.0530205637989,-410.9968341820964,1029.8597615045871,-302.6222477116567,1162.6665024453755,-194.24766124121692 L1149.237767945705,-177.18091018735453 C1012.6623855781434,-280.76588189226385,876.0870032105821,-384.35085359717317,739.5116208430205,-487.9358253020825 L764.2462796230105,-519.3714206525361" fill="black" close="True" stroke="none" />
<circle cx="1155.9521351955402" cy="-185.71428571428572" r="10.858233072157235" fill="black" stroke="none" />
<path d="M1152.5694364969447,-196.03216218979216 C1298.8403396893616,-240.52866275385924,1445.111242881779,-285.0251633179263,1591.382146074196,-329.5216638819934 L1592.0052122169313,-327.6211932608637 C1447.7817527759996,-276.87959858683564,1303.5582933350677,-226.13800391280745,1159.3348338941357,-175.39640923877928 L1152.5694364969447,-196.03216218979216" fill="black" close="True" stroke="none" />
<circle cx="2444.410302476775" cy="-157.14285714285714" r="1.0" fill="none" stroke="black" stroke-width="1" />
<circle cx="1656.632467754511" cy="-185.71428571428572" r="1.0" fill="none" stroke="black" stroke-width="1" />
<path d="M1656.2915156882002,-186.65436639618406 C1664.6882722640648,-196.4367446699432,1673.0850288399295,-206.21912294370242,1681.481785415794,-216.0015012174616" stroke="black" stroke-width="1" fill="none" />
<path d="M1656.9734198208218,-184.77420503238739 C1669.688902569956,-182.6488946687678,1682.4043853190904,-180.52358430514823,1695.1198680682246,-178.39827394152863" stroke="black" stroke-width="1" fill="none" />
<circle cx="1688.3008267420093" cy="-197.1998875794951" r="20.0" fill="none" stroke="black" stroke-width="1" />
<path d="M1681.481785415794,-216.0015012174616 C1803.2564324591258,-256.93977604196493,1925.0310795024577,-297.8780508664683,2046.8057265457894,-338.8163256909717" stroke="black" stroke-width="1" fill="none" />
<path d="M1695.1198680682246,-178.39827394152863 C1814.8255932739821,-225.04102644498087,1934.5313184797394,-271.68377894843314,2054.2370436854967,-318.3265314518854" stroke="black" stroke-width="1" fill="none" />
<circle cx="2050.521385115643" cy="-328.57142857142856" r="10.897891337215256" fill="none" stroke="black" stroke-width="1" />
<path d="M2054.8703394980885,-338.56395734932863 C2184.850015104853,-278.3958983281992,2314.829690711618,-218.22783930706987,2444.809366318382,-158.0597802859405" stroke="black" stroke-width="1" fill="none" />
<path d="M2046.1724307331979,-318.5788997935285 C2178.785366700521,-264.46124452894355,2311.3983026678447,-210.34358926435868,2444.011238635168,-156.2259339997738" stroke="black" stroke-width="1" fill="none" />
<circle cx="2444.410302476775" cy="-157.14285714285714" r="1.0" fill="black" stroke="none" />
<circle cx="1656.632467754511" cy="-185.71428571428572" r="1.0" fill="black" stroke="none" />
<path d="M1656.2915156882002,-186.65436639618406 C1664.6882722640648,-196.4367446699432,1673.0850288399295,-206.21912294370242,1681.481785415794,-216.0015012174616 L1695.1198680682246,-178.39827394152863 C1682.4043853190904,-180.52358430514823,1669.688902569956,-182.6488946687678,1656.9734198208218,-184.77420503238739 L1656.2915156882002,-186.65436639618406" fill="black" close="True" stroke="none" />
<circle cx="1688.3008267420093" cy="-197.1998875794951" r="20.0" fill="black" stroke="none" />
<path d="M1681.481785415794,-216.0015012174616 C1803.2564324591258,-256.93977604196493,1925.0310795024577,-297.8780508664683,2046.8057265457894,-338.8163256909717 L2054.2370436854967,-318.3265314518854 C1934.5313184797394,-271.68377894843314,1814.8255932739821,-225.04102644498087,1695.1198680682246,-178.39827394152863 L1681.481785415794,-216.0015012174616" fill="black" close="True" stroke="none" />
<circle cx="2050.521385115643" cy="-328.57142857142856" r="10.897891337215256" fill="black" stroke="none" />
<path d="M2054.8703394980885,-338.56395734932863 C2184.850015104853,-278.3958983281992,2314.829690711618,-218.22783930706987,2444.809366318382,-158.0597802859405 L2444.011238635168,-156.2259339997738 C2311.3983026678447,-210.34358926435868,2178.785366700521,-264.46124452894355,2046.1724307331979,-318.5788997935285 L2054.8703394980885,-338.56395734932863" fill="black" close="True" stroke="none" />
<circle cx="2776.0533536865178" cy="-500.0" r="20.0" fill="none" stroke="black" stroke-width="1" />
<circle cx="2158.712001377293" cy="-242.85714285714286" r="20.0" fill="none" stroke="black" stroke-width="1" />
<path d="M2144.4429747671275,-256.8712386038682 C2161.101724265095,-261.62578491118376,2174.7910385562427,-269.29671440559224,2186.9557939783513,-278.4649649539132" stroke="black" stroke-width="1" fill="none" />
<path d="M2172.981027987458,-228.8430471104175 C2177.4345178144895,-245.58479354813952,2184.8574428483407,-259.41015679876847,2193.804926751231,-271.73819899548505" stroke="black" stroke-width="1" fill="none" />
<circle cx="2190.380360364791" cy="-275.1015819746991" r="4.800000000000001" fill="none" stroke="black" stroke-width="1" />
<path d="M2186.9557939783513,-278.4649649539132 C2278.9462824208827,-372.8162015463659,2370.7289704376094,-467.3715259958948,2462.178192005611,-562.2543591724332" stroke="black" stroke-width="1" fill="none" />
<path d="M2193.804926751231,-271.73819899548505 C2286.4826497534427,-365.4144791818043,2379.368173181458,-458.88667151104744,2472.5871630581996,-552.031355113281" stroke="black" stroke-width="1" fill="none" />
<circle cx="2467.3826775319053" cy="-557.1428571428571" r="7.294801065948754" fill="none" stroke="black" stroke-width="1" />
<path d="M2468.710569522584,-564.3157802187626 C2572.0165187885495,-547.5137921718853,2675.610940481161,-532.2700562572452,2779.6940067452488,-519.6658497224491" stroke="black" stroke-width="1" fill="none" />
<path d="M2466.0547855412265,-549.9699340669516 C2568.529287045003,-528.6766840185909,2670.7153161221327,-505.8251818379929,2772.4127006277868,-480.33415027755086" stroke="black" stroke-width="1" fill="none" />
<circle cx="2776.0533536865178" cy="-500.0" r="20.0" fill="black" stroke="none" />
<circle cx="2158.712001377293" cy="-242.85714285714286" r="20.0" fill="black" stroke="none" />
<path d="M2144.4429747671275,-256.8712386038682 C2161.101724265095,-261.62578491118376,2174.7910385562427,-269.29671440559224,2186.9557939783513,-278.4649649539132 L2193.804926751231,-271.73819899548505 C2184.8574428483407,-259.41015679876847,2177.4345178144895,-245.58479354813952,2172.981027987458,-228.8430471104175 L2144.4429747671275,-256.8712386038682" fill="black" close="True" stroke="none" />
<circle cx="2190.380360364791" cy="-275.1015819746991" r="4.800000000000001" fill="black" stroke="none" />
<path d="M2186.9557939783513,-278.4649649539132 C2278.9462824208827,-372.8162015463659,2370.7289704376094,-467.3715259958948,2462.178192005611,-562.2543591724332 L2472.5871630581996,-552.031355113281 C2379.368173181458,-458.88667151104744,2286.4826497534427,-365.4144791818043,2193.804926751231,-271.73819899548505 L2186.9557939783513,-278.4649649539132" fill="black" close="True" stroke="none" />
<circle cx="2467.3826775319053" cy="-557.1428571428571" r="7.294801065948754" fill="black" stroke="none" />
<path d="M2468.710569522584,-564.3157802187626 C2572.0165187885495,-547.5137921718853,2675.610940481161,-532.2700562572452,2779.6940067452488,-519.6658497224491 L2772.4127006277868,-480.33415027755086 C2670.7153161221327,-505.8251818379929,2568.529287045003,-528.6766840185909,2466.0547855412265,-549.9699340669516 L2468.710569522584,-564.3157802187626" fill="black" close="True" stroke="none" />
<circle cx="3038.5562054156935" cy="-671.4285714285714" r="1.0" fill="none" stroke="black" stroke-width="1" />
<circle cx="2328.1707363545097" cy="-414.2857142857143" r="1.0" fill="none" stroke="black" stroke-width="1" />
<path d="M2327.5439566889,-415.06491082753047 C2334.1304718025385,-428.4910831888811,2340.716986916177,-441.9172555502318,2347.3035020298157,-455.34342791158247" stroke="black" stroke-width="1" fill="none" />
<path d="M2328.7975160201195,-413.5065177438981 C2343.3232402314798,-417.06286724224384,2357.84896444284,-420.6192167405896,2372.3746886542003,-424.1755662389353" stroke="black" stroke-width="1" fill="none" />
<circle cx="2359.839095342008" cy="-439.7594970752589" r="20.0" fill="none" stroke="black" stroke-width="1" />
<path d="M2347.3035020298157,-455.34342791158247 C2457.0371536446073,-539.7379358742272,2566.7708052593985,-624.1324438368722,2676.5044568741905,-708.5269517995171" stroke="black" stroke-width="1" fill="none" />
<path d="M2372.3746886542003,-424.1755662389353 C2478.323954068138,-513.2747268927845,2584.273219482075,-602.3738875466338,2690.2224848960122,-691.4730482004829" stroke="black" stroke-width="1" fill="none" />
<circle cx="2683.3634708851014" cy="-700.0" r="10.943261862587457" fill="none" stroke="black" stroke-width="1" />
<path d="M2684.2409042712875,-710.9080287332756 C2802.3727314001435,-698.0804697588447,2920.5045585289995,-685.2529107844139,3038.6363856578555,-672.4253518099829" stroke="black" stroke-width="1" fill="none" />
<path d="M2682.4860374989153,-689.0919712667244 C2801.1493667237874,-682.8719111935362,2919.8126959486594,-676.651851120348,3038.4760251735315,-670.43179104716" stroke="black" stroke-width="1" fill="none" />
<circle cx="3038.5562054156935" cy="-671.4285714285714" r="1.0" fill="black" stroke="none" />
<circle cx="2328.1707363545097" cy="-414.2857142857143" r="1.0" fill="black" stroke="none" />
<path d="M2327.5439566889,-415.06491082753047 C2334.1304718025385,-428.4910831888811,2340.716986916177,-441.9172555502318,2347.3035020298157,-455.34342791158247 L2372.3746886542003,-424.1755662389353 C2357.84896444284,-420.6192167405896,2343.3232402314798,-417.06286724224384,2328.7975160201195,-413.5065177438981 L2327.5439566889,-415.06491082753047" fill="black" close="True" stroke="none" />
<circle cx="2359.839095342008" cy="-439.7594970752589" r="20.0" fill="black" stroke="none" />
<path d="M2347.3035020298157,-455.34342791158247 C2457.0371536446073,-539.7379358742272,2566.7708052593985,-624.1324438368722,2676.5044568741905,-708.5269517995171 L2690.2224848960122,-691.4730482004829 C2584.273219482075,-602.3738875466338,2478.323954068138,-513.2747268927845,2372.3746886542003,-424.1755662389353 L2347.3035020298157,-455.34342791158247" fill="black" close="True" stroke="none" />
<circle cx="2683.3634708851014" cy="-700.0" r="10.943261862587457" fill="black" stroke="none" />
<path d="M2684.2409042712875,-710.9080287332756 C2802.3727314001435,-698.0804697588447,2920.5045585289995,-685.2529107844139,3038.6363856578555,-672.4253518099829 L3038.4760251735315,-670.43179104716 C2919.8126959486594,-676.651851120348,2801.1493667237874,-682.8719111935362,2682.4860374989153,-689.0919712667244 L2684.2409042712875,-710.9080287332756" fill="black" close="True" stroke="none" />
<circle cx="3192.452159438188" cy="-271.42857142857144" r="1.0" fill="none" stroke="black" stroke-width="1" />
<circle cx="3043.592650063183" cy="-585.7142857142858" r="1.0" fill="none" stroke="black" stroke-width="1" />
<path d="M3044.5657347496153,-585.9447335240627 C3061.2847240928527,-542.8301594310693,3078.00371343609,-499.7155853380759,3094.722702779327,-456.6010112450825" stroke="black" stroke-width="1" fill="none" />
<path d="M3042.619565376751,-585.4838379045088 C3047.0128153585124,-539.4502582210076,3051.406065340274,-493.4166785375065,3055.799315322036,-447.38309885400537" stroke="black" stroke-width="1" fill="none" />
<circle cx="3075.2610090506814" cy="-451.9920550495439" r="20.0" fill="none" stroke="black" stroke-width="1" />
<path d="M3094.722702779327,-456.6010112450825 C3106.727757236955,-395.8806314138177,3118.732811694582,-335.160251582553,3130.7378661522093,-274.43987175128825" stroke="black" stroke-width="1" fill="none" />
<path d="M3055.799315322036,-447.38309885400537 C3072.3018579977443,-387.7278229379551,3088.8044006734526,-328.07254702190494,3105.3069433491614,-268.41727110585464" stroke="black" stroke-width="1" fill="none" />
<circle cx="3118.0224047506854" cy="-271.42857142857144" r="13.067168334694585" fill="none" stroke="black" stroke-width="1" />
<path d="M3118.0224047506854,-284.49573976326604 C3142.832322979853,-280.4733503183678,3167.6422412090205,-276.4509608734696,3192.452159438188,-272.42857142857144" stroke="black" stroke-width="1" fill="none" />
<path d="M3118.0224047506854,-258.36140309387685 C3142.832322979853,-262.3837925387751,3167.6422412090205,-266.40618198367326,3192.452159438188,-270.42857142857144" stroke="black" stroke-width="1" fill="none" />
<circle cx="3192.452159438188" cy="-271.42857142857144" r="1.0" fill="black" stroke="none" />
<circle cx="3043.592650063183" cy="-585.7142857142858" r="1.0" fill="black" stroke="none" />
<path d="M3044.5657347496153,-585.9447335240627 C3061.2847240928527,-542.8301594310693,3078.00371343609,-499.7155853380759,3094.722702779327,-456.6010112450825 L3055.799315322036,-447.38309885400537 C3051.406065340274,-493.4166785375065,3047.0128153585124,-539.4502582210076,3042.619565376751,-585.4838379045088 L3044.5657347496153,-585.9447335240627" fill="black" close="True" stroke="none" />
<circle cx="3075.2610090506814" cy="-451.9920550495439" r="20.0" fill="black" stroke="none" />
<path d="M3094.722702779327,-456.6010112450825 C3106.727757236955,-395.8806314138177,3118.732811694582,-335.160251582553,3130.7378661522093,-274.43987175128825 L3105.3069433491614,-268.41727110585464 C3088.8044006734526,-328.07254702190494,3072.3018579977443,-387.7278229379551,3055.799315322036,-447.38309885400537 L3094.722702779327,-456.6010112450825" fill="black" close="True" stroke="none" />
<circle cx="3118.0224047506854" cy="-271.42857142857144" r="13.067168334694585" fill="black" stroke="none" />
<path d="M3118.0224047506854,-284.49573976326604 C3142.832322979853,-280.4733503183678,3167.6422412090205,-276.4509608734696,3192.452159438188,-272.42857142857144 L3192.452159438188,-270.42857142857144 C3167.6422412090205,-266.40618198367326,3142.832322979853,-262.3837925387751,3118.0224047506854,-258.36140309387685 L3118.0224047506854,-284.49573976326604" fill="black" close="True" stroke="none" />
<circle cx="4496.696230630295" cy="-557.1428571428571" r="20.0" fill="none" stroke="black" stroke-width="1" />
<circle cx="3604.075610292731" cy="-157.14285714285714" r="20.0" fill="none" stroke="black" stroke-width="1" />
<path d="M3596.9043832620073,-175.8129804117007 C3610.5275197035935,-171.88269739504085,3622.6582982848363,-171.83773345898834,3634.022874792856,-173.78755885182358" stroke="black" stroke-width="1" fill="none" />
<path d="M3611.246837323455,-138.47273387401358 C3618.735940206868,-150.5122649736361,3627.717400950624,-158.66647699265127,3637.465063767603,-164.8258996827787" stroke="black" stroke-width="1" fill="none" />
<circle cx="3635.7439692802295" cy="-169.30672926730114" r="4.800000000000001" fill="none" stroke="black" stroke-width="1" />
<path d="M3634.022874792856,-173.78755885182358 C3772.060187243348,-227.33575152470513,3909.988197416043,-281.16851014303927,4047.739282615493,-335.46188882620476" stroke="black" stroke-width="1" fill="none" />
<path d="M3637.465063767603,-164.8258996827787 C3775.8557187712995,-217.45417321264875,3914.355676052794,-269.7978807970662,4053.032558307533,-321.68096831665235" stroke="black" stroke-width="1" fill="none" />
<circle cx="4050.385920461513" cy="-328.57142857142856" r="7.38126915988275" fill="none" stroke="black" stroke-width="1" />
<path d="M4047.021287395015,-335.1412366917974 C4194.745460448143,-413.3740044136367,4341.7591076744,-492.99415026998685,4487.579551659191,-574.9441538523059" stroke="black" stroke-width="1" fill="none" />
<path d="M4053.7505535280106,-322.0016204510597 C4203.56658725407,-396.1498051101727,4354.093146807002,-468.9106116347751,4505.812909601399,-539.3415604334083" stroke="black" stroke-width="1" fill="none" />
<circle cx="4496.696230630295" cy="-557.1428571428571" r="20.0" fill="black" stroke="none" />
<circle cx="3604.075610292731" cy="-157.14285714285714" r="20.0" fill="black" stroke="none" />
<path d="M3596.9043832620073,-175.8129804117007 C3610.5275197035935,-171.88269739504085,3622.6582982848363,-171.83773345898834,3634.022874792856,-173.78755885182358 L3637.465063767603,-164.8258996827787 C3627.717400950624,-158.66647699265127,3618.735940206868,-150.5122649736361,3611.246837323455,-138.47273387401358 L3596.9043832620073,-175.8129804117007" fill="black" close="True" stroke="none" />
<circle cx="3635.7439692802295" cy="-169.30672926730114" r="4.800000000000001" fill="black" stroke="none" />
<path d="M3634.022874792856,-173.78755885182358 C3772.060187243348,-227.33575152470513,3909.988197416043,-281.16851014303927,4047.739282615493,-335.46188882620476 L4053.032558307533,-321.68096831665235 C3914.355676052794,-269.7978807970662,3775.8557187712995,-217.45417321264875,3637.465063767603,-164.8258996827787 L3634.022874792856,-173.78755885182358" fill="black" close="True" stroke="none" />
<circle cx="4050.385920461513" cy="-328.57142857142856" r="7.38126915988275" fill="black" stroke="none" />
<path d="M4047.021287395015,-335.1412366917974 C4194.745460448143,-413.3740044136367,4341.7591076744,-492.99415026998685,4487.579551659191,-574.9441538523059 L4505.812909601399,-539.3415604334083 C4354.093146807002,-468.9106116347751,4203.56658725407,-396.1498051101727,4053.7505535280106,-322.0016204510597 L4047.021287395015,-335.1412366917974" fill="black" close="True" stroke="none" />
<circle cx="5136.253382254175" cy="-471.42857142857144" r="1.0" fill="none" stroke="black" stroke-width="1" />
<circle cx="4525.4970322273975" cy="-585.7142857142858" r="1.0" fill="none" stroke="black" stroke-width="1" />
<path d="M4526.141142015621,-586.4792187706475 C4540.776623670201,-582.4350431006122,4555.412105324781,-578.390867430577,4570.047586979362,-574.3466917605418" stroke="black" stroke-width="1" fill="none" />
<path d="M4524.852922439174,-584.949352657924 C4531.329680109593,-571.2160249406396,4537.806437780012,-557.4826972233553,4544.28319545043,-543.7493695060708" stroke="black" stroke-width="1" fill="none" />
<circle cx="4557.165391214896" cy="-559.0480306333063" r="20.0" fill="none" stroke="black" stroke-width="1" />
<path d="M4570.047586979362,-574.3466917605418 C4659.3560545639675,-495.2313364473521,4748.664522148571,-416.11598113416244,4837.972989733177,-337.00062582097274" stroke="black" stroke-width="1" fill="none" />
<path d="M4544.28319545043,-543.7493695060708 C4637.447938549752,-469.2136567780087,4730.612681649073,-394.6779440499465,4823.777424748395,-320.14223132188437" stroke="black" stroke-width="1" fill="none" />
<circle cx="4830.875207240786" cy="-328.57142857142856" r="11.019522792799265" fill="none" stroke="black" stroke-width="1" />
<path d="M4826.2058909513225,-338.55277958068456 C4929.413810965248,-383.14663951478934,5032.621730979173,-427.74049944889407,5135.829650993098,-472.33435938299885" stroke="black" stroke-width="1" fill="none" />
<path d="M4835.5445235302495,-318.59007756217255 C4935.922053525251,-369.23431286616307,5036.299583520252,-419.8785481701535,5136.677113515253,-470.52278347414403" stroke="black" stroke-width="1" fill="none" />
<circle cx="5136.253382254175" cy="-471.42857142857144" r="1.0" fill="black" stroke="none" />
<circle cx="4525.4970322273975" cy="-585.7142857142858" r="1.0" fill="black" stroke="none" />
<path d="M4526.141142015621,-586.4792187706475 C4540.776623670201,-582.4350431006122,4555.412105324781,-578.390867430577,4570.047586979362,-574.3466917605418 L4544.28319545043,-543.7493695060708 C4537.806437780012,-557.4826972233553,4531.329680109593,-571.2160249406396,4524.852922439174,-584.949352657924 L4526.141142015621,-586.4792187706475" fill="black" close="True" stroke="none" />
<circle cx="4557.165391214896" cy="-559.0480306333063" r="20.0" fill="black" stroke="none" />
<path d="M4570.047586979362,-574.3466917605418 C4659.3560545639675,-495.2313364473521,4748.664522148571,-416.11598113416244,4837.972989733177,-337.00062582097274 L4823.777424748395,-320.14223132188437 C4730.612681649073,-394.6779440499465,4637.447938549752,-469.2136567780087,4544.28319545043,-543.7493695060708 L4570.047586979362,-574.3466917605418" fill="black" close="True" stroke="none" />
<circle cx="4830.875207240786" cy="-328.57142857142856" r="11.019522792799265" fill="black" stroke="none" />
<path d="M4826.2058909513225,-338.55277958068456 C4929.413810965248,-383.14663951478934,5032.621730979173,-427.74049944889407,5135.829650993098,-472.33435938299885 L5136.677113515253,-470.52278347414403 C5036.299583520252,-419.8785481701535,4935.922053525251,-369.23431286616307,4835.5445235302495,-318.59007756217255 L4826.2058909513225,-338.55277958068456" fill="black" close="True" stroke="none" />
<circle cx="5088.448997499658" cy="-300.0" r="20.0" fill="none" stroke="black" stroke-width="1" />
<circle cx="4833.781641709356" cy="-614.2857142857143" r="20.0" fill="none" stroke="black" stroke-width="1" />
<path d="M4825.593097375592,-632.5325699516635 C4839.65132382684,-629.4659011967877,4852.005485067362,-630.1964680283695,4863.484750056751,-632.8766006150381" stroke="black" stroke-width="1" fill="none" />
<path d="M4841.9701860431205,-596.0388586197652 C4849.024198916872,-608.5799546876382,4857.782277001348,-617.3238151690539,4867.415251336958,-624.1181098953825" stroke="black" stroke-width="1" fill="none" />
<circle cx="4865.450000696855" cy="-628.4973552552103" r="4.800000000000001" fill="none" stroke="black" stroke-width="1" />
<path d="M4863.484750056751,-632.8766006150381 C4895.19850790373,-647.5762563124038,4926.81868654665,-662.4844382337486,4958.295154443537,-677.7128564673874" stroke="black" stroke-width="1" fill="none" />
<path d="M4867.415251336958,-624.1181098953825 C4899.478372761748,-638.0392649802577,4931.635073390596,-651.7518938411534,4963.935484765477,-665.1442863897555" stroke="black" stroke-width="1" fill="none" />
<circle cx="4961.115319604507" cy="-671.4285714285714" r="6.888074475804849" fill="none" stroke="black" stroke-width="1" />
<path d="M4967.631137096303,-673.6623333670591 C5012.176844743939,-550.5731282613026,5058.340533547384,-428.03860178606175,5107.368123634788,-306.4858820743997" stroke="black" stroke-width="1" fill="none" />
<path d="M4954.599502112711,-669.1948094900838 C4994.942913061843,-544.6649669767926,5033.668342855163,-419.58044583298596,5069.529871364527,-293.5141179256003" stroke="black" stroke-width="1" fill="none" />
<circle cx="5088.448997499658" cy="-300.0" r="20.0" fill="black" stroke="none" />
<circle cx="4833.781641709356" cy="-614.2857142857143" r="20.0" fill="black" stroke="none" />
<path d="M4825.593097375592,-632.5325699516635 C4839.65132382684,-629.4659011967877,4852.005485067362,-630.1964680283695,4863.484750056751,-632.8766006150381 L4867.415251336958,-624.1181098953825 C4857.782277001348,-617.3238151690539,4849.024198916872,-608.5799546876382,4841.9701860431205,-596.0388586197652 L4825.593097375592,-632.5325699516635" fill="black" close="True" stroke="none" />
<circle cx="4865.450000696855" cy="-628.4973552552103" r="4.800000000000001" fill="black" stroke="none" />
<path d="M4863.484750056751,-632.8766006150381 C4895.19850790373,-647.5762563124038,4926.81868654665,-662.4844382337486,4958.295154443537,-677.7128564673874 L4963.935484765477,-665.1442863897555 C4931.635073390596,-651.7518938411534,4899.478372761748,-638.0392649802577,4867.415251336958,-624.1181098953825 L4863.484750056751,-632.8766006150381" fill="black" close="True" stroke="none" />
<circle cx="4961.115319604507" cy="-671.4285714285714" r="6.888074475804849" fill="black" stroke="none" />
<path d="M4967.631137096303,-673.6623333670591 C5012.176844743939,-550.5731282613026,5058.340533547384,-428.03860178606175,5107.368123634788,-306.4858820743997 L5069.529871364527,-293.5141179256003 C5033.668342855163,-419.58044583298596,4994.942913061843,-544.6649669767926,4954.599502112711,-669.1948094900838 L4967.631137096303,-673.6623333670591" fill="black" close="True" stroke="none" />
<circle cx="5186.337370551777" cy="-671.4285714285714" r="20.0" fill="none" stroke="black" stroke-width="1" />
<circle cx="5022.716315064891" cy="-700.0" r="20.0" fill="none" stroke="black" stroke-width="1" />
<path d="M5040.071861435196,-709.9390648548133 C5043.205297127451,-687.255244551364,5049.950483770457,-666.6397790074273,5058.550005181262,-647.0862422052569" stroke="black" stroke-width="1" fill="none" />
<path d="M5005.360768694586,-690.0609351451867 C5023.339572327331,-675.8786665420372,5037.706625009323,-659.628043179375,5050.219342923517,-642.3154910749465" stroke="black" stroke-width="1" fill="none" />
<circle cx="5054.3846740523895" cy="-644.7008666401017" r="4.800000000000001" fill="none" stroke="black" stroke-width="1" />
<path d="M5058.550005181262,-647.0862422052569 C5075.583552277197,-618.0832030413794,5092.764795576902,-589.164745608135,5110.162012995132,-560.3699708711991" stroke="black" stroke-width="1" fill="none" />
<path d="M5050.219342923517,-642.3154910749465 C5066.613908331546,-612.9465239073277,5082.860777535804,-583.4929750090755,5098.8916726215375,-553.9157434145151" stroke="black" stroke-width="1" fill="none" />
<circle cx="5104.526842808335" cy="-557.1428571428571" r="6.493797506068692" fill="none" stroke="black" stroke-width="1" />
<path d="M5099.246512270012,-560.9227401378566 C5124.777468426987,-600.2629849875497,5148.814563493681,-640.6725985237408,5170.074681321362,-683.0700893276655" stroke="black" stroke-width="1" fill="none" />
<path d="M5109.807173346657,-553.3629741478576 C5138.816569018644,-590.2132054886407,5169.319825780911,-625.9940681429259,5202.600059782192,-659.7870535294774" stroke="black" stroke-width="1" fill="none" />
<circle cx="5186.337370551777" cy="-671.4285714285714" r="20.0" fill="black" stroke="none" />
<circle cx="5022.716315064891" cy="-700.0" r="20.0" fill="black" stroke="none" />
<path d="M5040.071861435196,-709.9390648548133 C5043.205297127451,-687.255244551364,5049.950483770457,-666.6397790074273,5058.550005181262,-647.0862422052569 L5050.219342923517,-642.3154910749465 C5037.706625009323,-659.628043179375,5023.339572327331,-675.8786665420372,5005.360768694586,-690.0609351451867 L5040.071861435196,-709.9390648548133" fill="black" close="True" stroke="none" />
<circle cx="5054.3846740523895" cy="-644.7008666401017" r="4.800000000000001" fill="black" stroke="none" />
<path d="M5058.550005181262,-647.0862422052569 C5075.583552277197,-618.0832030413794,5092.764795576902,-589.164745608135,5110.162012995132,-560.3699708711991 L5098.8916726215375,-553.9157434145151 C5082.860777535804,-583.4929750090755,5066.613908331546,-612.9465239073277,5050.219342923517,-642.3154910749465 L5058.550005181262,-647.0862422052569" fill="black" close="True" stroke="none" />
<circle cx="5104.526842808335" cy="-557.1428571428571" r="6.493797506068692" fill="black" stroke="none" />
<path d="M5099.246512270012,-560.9227401378566 C5124.777468426987,-600.2629849875497,5148.814563493681,-640.6725985237408,5170.074681321362,-683.0700893276655 L5202.600059782192,-659.7870535294774 C5169.319825780911,-625.9940681429259,5138.816569018644,-590.2132054886407,5109.807173346657,-553.3629741478576 L5099.246512270012,-560.9227401378566" fill="black" close="True" stroke="none" />
<circle cx="6027.42160692423" cy="-300.0" r="20.0" fill="none" stroke="black" stroke-width="1" />
<circle cx="5351.434906721364" cy="-442.8571428571429" r="20.0" fill="none" stroke="black" stroke-width="1" />
<path d="M5343.648581533712,-461.27922580321956 C5357.534785419684,-457.86207836111646,5369.800627330335,-458.2786319259242,5381.234547663827,-460.6634732169329" stroke="black" stroke-width="1" fill="none" />
<path d="M5359.221231909017,-424.4350599110662 C5366.447267348043,-436.7755609883237,5375.293664762393,-445.2823610586704,5384.9719837539005,-451.82087340281606" stroke="black" stroke-width="1" fill="none" />
<circle cx="5383.103265708864" cy="-456.2421733098745" r="4.800000000000001" fill="none" stroke="black" stroke-width="1" />
<path d="M5381.234547663827,-460.6634732169329 C5483.154146990836,-504.26737288392565,5584.958866182566,-548.1430736033994,5686.578777975433,-592.4560200259331" stroke="black" stroke-width="1" fill="none" />
<path d="M5384.9719837539005,-451.82087340281606 C5487.269045169513,-494.5317153387641,5589.680986720406,-536.9707562222313,5692.277735670162,-578.9725514026385" stroke="black" stroke-width="1" fill="none" />
<circle cx="5689.428256822797" cy="-585.7142857142858" r="7.319187880524751" fill="none" stroke="black" stroke-width="1" />
<path d="M5694.153329548209,-591.3039367740568 C5808.294145162552,-497.8123476558477,5923.453270211119,-405.5253948975329,6040.3330741595055,-315.27396522951443" stroke="black" stroke-width="1" fill="none" />
<path d="M5684.703184097386,-580.1246346545148 C5795.891268550664,-483.1400332965334,5906.06104356972,-384.95079557865756,6014.510139688955,-284.72603477048557" stroke="black" stroke-width="1" fill="none" />
<circle cx="6027.42160692423" cy="-300.0" r="20.0" fill="black" stroke="none" />
<circle cx="5351.434906721364" cy="-442.8571428571429" r="20.0" fill="black" stroke="none" />
<path d="M5343.648581533712,-461.27922580321956 C5357.534785419684,-457.86207836111646,5369.800627330335,-458.2786319259242,5381.234547663827,-460.6634732169329 L5384.9719837539005,-451.82087340281606 C5375.293664762393,-445.2823610586704,5366.447267348043,-436.7755609883237,5359.221231909017,-424.4350599110662 L5343.648581533712,-461.27922580321956" fill="black" close="True" stroke="none" />
<circle cx="5383.103265708864" cy="-456.2421733098745" r="4.800000000000001" fill="black" stroke="none" />
<path d="M5381.234547663827,-460.6634732169329 C5483.154146990836,-504.26737288392565,5584.958866182566,-548.1430736033994,5686.578777975433,-592.4560200259331 L5692.277735670162,-578.9725514026385 C5589.680986720406,-536.9707562222313,5487.269045169513,-494.5317153387641,5384.9719837539005,-451.82087340281606 L5381.234547663827,-460.6634732169329" fill="black" close="True" stroke="none" />
<circle cx="5689.428256822797" cy="-585.7142857142858" r="7.319187880524751" fill="black" stroke="none" />
<path d="M5694.153329548209,-591.3039367740568 C5808.294145162552,-497.8123476558477,5923.453270211119,-405.5253948975329,6040.3330741595055,-315.27396522951443 L6014.510139688955,-284.72603477048557 C5906.06104356972,-384.95079557865756,5795.891268550664,-483.1400332965334,5684.703184097386,-580.1246346545148 L5694.153329548209,-591.3039367740568" fill="black" close="True" stroke="none" />
<circle cx="6165.025432393578" cy="-585.7142857142858" r="20.0" fill="none" stroke="black" stroke-width="1" />
<circle cx="5792.707795073269" cy="-157.14285714285714" r="20.0" fill="none" stroke="black" stroke-width="1" />
<path d="M5775.131508256127,-166.6861344479316 C5793.204718975883,-182.0463150164591,5807.620241872507,-199.3924855471849,5820.157845224654,-217.7582973227305" stroke="black" stroke-width="1" fill="none" />
<path d="M5810.2840818904115,-147.59957983778267 C5813.323110495654,-171.12276835369218,5820.019826924031,-192.65996690740337,5828.594462896883,-213.17752421629476" stroke="black" stroke-width="1" fill="none" />
<circle cx="5824.376154060768" cy="-215.46791076951263" r="4.800000000000001" fill="none" stroke="black" stroke-width="1" />
<path d="M5820.157845224654,-217.7582973227305 C5871.253035108399,-312.82039738859055,5922.117754162647,-408.007634638402,5972.619749312914,-503.3918176274856" stroke="black" stroke-width="1" fill="none" />
<path d="M5828.594462896883,-213.17752421629476 C5880.492912794907,-307.8034836374263,5932.62183352243,-402.30430587460637,5985.113478153932,-496.6081823725144" stroke="black" stroke-width="1" fill="none" />
<circle cx="5978.866613733423" cy="-500.0" r="7.10828684750059" fill="none" stroke="black" stroke-width="1" />
<path d="M5975.893695669955,-506.4567406711327 C6037.00241814408,-537.0788698296224,6097.424537349671,-569.1922002772956,6156.660778216707,-603.8810840150692" stroke="black" stroke-width="1" fill="none" />
<path d="M5981.839531796891,-493.5432593288673 C6044.836688429536,-520.0639873132347,6108.520448330715,-545.0935140084189,6173.390086570449,-567.5474874135024" stroke="black" stroke-width="1" fill="none" />
<circle cx="6165.025432393578" cy="-585.7142857142858" r="20.0" fill="black" stroke="none" />
<circle cx="5792.707795073269" cy="-157.14285714285714" r="20.0" fill="black" stroke="none" />
<path d="M5775.131508256127,-166.6861344479316 C5793.204718975883,-182.0463150164591,5807.620241872507,-199.3924855471849,5820.157845224654,-217.7582973227305 L5828.594462896883,-213.17752421629476 C5820.019826924031,-192.65996690740337,5813.323110495654,-171.12276835369218,5810.2840818904115,-147.59957983778267 L5775.131508256127,-166.6861344479316" fill="black" close="True" stroke="none" />
<circle cx="5824.376154060768" cy="-215.46791076951263" r="4.800000000000001" fill="black" stroke="none" />
<path d="M5820.157845224654,-217.7582973227305 C5871.253035108399,-312.82039738859055,5922.117754162647,-408.007634638402,5972.619749312914,-503.3918176274856 L5985.113478153932,-496.6081823725144 C5932.62183352243,-402.30430587460637,5880.492912794907,-307.8034836374263,5828.594462896883,-213.17752421629476 L5820.157845224654,-217.7582973227305" fill="black" close="True" stroke="none" />
<circle cx="5978.866613733423" cy="-500.0" r="7.10828684750059" fill="black" stroke="none" />
<path d="M5975.893695669955,-506.4567406711327 C6037.00241814408,-537.0788698296224,6097.424537349671,-569.1922002772956,6156.660778216707,-603.8810840150692 L6173.390086570449,-567.5474874135024 C6108.520448330715,-545.0935140084189,6044.836688429536,-520.0639873132347,5981.839531796891,-493.5432593288673 L5975.893695669955,-506.4567406711327" fill="black" close="True" stroke="none" />
<circle cx="6900.0" cy="-100.0" r="1.0" fill="none" stroke="black" stroke-width="1" />
<circle cx="6125.590175613438" cy="-357.14285714285717" r="1.0" fill="none" stroke="black" stroke-width="1" />
<path d="M6125.374041191209,-358.1192207593072 C6134.561309512919,-366.6396307005988,6143.748577834631,-375.1600406418908,6152.9358461563415,-383.68045058318233" stroke="black" stroke-width="1" fill="none" />
<path d="M6125.806310035668,-356.1664935264071 C6137.731281038956,-352.3196309926652,6149.656252042245,-348.47276845892276,6161.581223045533,-344.6259059251809" stroke="black" stroke-width="1" fill="none" />
<circle cx="6157.258534600937" cy="-364.1531782541816" r="20.0" fill="none" stroke="black" stroke-width="1" />
<path d="M6152.9358461563415,-383.68045058318233 C6272.103274287381,-406.95511356054374,6391.270702418423,-430.229776537905,6510.438130549463,-453.5044395152664" stroke="black" stroke-width="1" fill="none" />
<path d="M6161.581223045533,-344.6259059251809 C6279.438163718347,-373.82055268312706,6397.295104391161,-403.0151994410732,6515.152045063975,-432.20984619901935" stroke="black" stroke-width="1" fill="none" />
<circle cx="6512.795087806719" cy="-442.8571428571429" r="10.90505266555922" fill="none" stroke="black" stroke-width="1" />
<path d="M6520.0243902808,-451.02153869375377 C6646.903904006867,-334.2639191599488,6773.783417732935,-217.5062996261438,6900.662931459003,-100.74868009233884" stroke="black" stroke-width="1" fill="none" />
<path d="M6505.5657853326375,-434.692747020532 C6636.822879735424,-322.87893798290844,6768.079974138211,-211.06512894528475,6899.337068540997,-99.25131990766116" stroke="black" stroke-width="1" fill="none" />
<circle cx="6900.0" cy="-100.0" r="1.0" fill="black" stroke="none" />
<circle cx="6125.590175613438" cy="-357.14285714285717" r="1.0" fill="black" stroke="none" />
<path d="M6125.374041191209,-358.1192207593072 C6134.561309512919,-366.6396307005988,6143.748577834631,-375.1600406418908,6152.9358461563415,-383.68045058318233 L6161.581223045533,-344.6259059251809 C6149.656252042245,-348.47276845892276,6137.731281038956,-352.3196309926652,6125.806310035668,-356.1664935264071 L6125.374041191209,-358.1192207593072" fill="black" close="True" stroke="none" />
<circle cx="6157.258534600937" cy="-364.1531782541816" r="20.0" fill="black" stroke="none" />
<path d="M6152.9358461563415,-383.68045058318233 C6272.103274287381,-406.95511356054374,6391.270702418423,-430.229776537905,6510.438130549463,-453.5044395152664 L6515.152045063975,-432.20984619901935 C6397.295104391161,-403.0151994410732,6279.438163718347,-373.82055268312706,6161.581223045533,-344.6259059251809 L6152.9358461563415,-383.68045058318233" fill="black" close="True" stroke="none" />
<circle cx="6512.795087806719" cy="-442.8571428571429" r="10.90505266555922" fill="black" stroke="none" />
<path d="M6520.0243902808,-451.02153869375377 C6646.903904006867,-334.2639191599488,6773.783417732935,-217.5062996261438,6900.662931459003,-100.74868009233884 L6899.337068540997,-99.25131990766116 C6768.079974138211,-211.06512894528475,6636.822879735424,-322.87893798290844,6505.5657853326375,-434.692747020532 L6520.0243902808,-451.02153869375377" fill="black" close="True" stroke="none" />
</svg>